<svg width="40" height="40" viewBox="0 0 40 40" fill="none" xmlns="http://www.w3.org/2000/svg">
<path fill-rule="evenodd" clip-rule="evenodd" d="M19.4839 0.102777C19.355 0.160604 17.9308 1.12239 16.3191 2.24023L13.3888 4.27267L13.3294 3.88031C13.2078 3.0777 12.7779 2.45927 12.1402 2.16959C11.8715 2.04753 11.6097 2.02659 10.3356 2.02511C8.86316 2.02339 8.84034 2.02596 8.42165 2.23828C7.9495 2.47779 7.54206 2.95267 7.41438 3.41239C7.36687 3.58344 7.33334 4.68644 7.33311 6.08786L7.33264 8.47217L3.85995 10.8749C1.88268 12.2431 0.312627 13.3826 0.213853 13.5213C-0.0215927 13.852 -0.0705886 14.4219 0.106719 14.7673C0.182049 14.9142 0.470554 15.3605 0.747885 15.7593C1.32021 16.5821 1.62254 16.7927 2.23066 16.7921C2.49126 16.7918 2.69991 16.7332 2.91754 16.5992C3.08945 16.4933 3.2559 16.4055 3.28731 16.4042C3.3188 16.4029 3.35397 21.1577 3.36546 26.9707L3.3864 37.5396L3.64646 38.0714C4.09961 38.9982 4.96153 39.6938 5.93481 39.9182C6.15893 39.9699 11.0298 39.998 19.995 39.9992C35.0002 40.0012 34.1883 40.0254 34.9928 39.554C35.531 39.2387 36.0408 38.6783 36.3324 38.0818L36.5973 37.5396L36.618 26.9707C36.6293 21.1577 36.6645 16.4029 36.6961 16.4042C36.7278 16.4055 36.8943 16.4933 37.0662 16.5992C37.2838 16.7332 37.4925 16.7918 37.7531 16.7921C38.3612 16.7927 38.6635 16.5821 39.2359 15.7593C39.5132 15.3605 39.8017 14.9142 39.877 14.7673C40.0647 14.4015 40.0058 13.8347 39.7447 13.4942C39.5567 13.2493 21.1662 0.447859 20.5534 0.135441C20.2237 -0.032645 19.8142 -0.045148 19.4839 0.102777ZM29.7598 8.0777C34.5949 11.4214 38.5745 14.1787 38.6033 14.205C38.6418 14.2402 37.9685 15.2464 37.7707 15.4492C37.7578 15.4625 33.906 12.8138 29.2113 9.56321C24.5166 6.3126 20.5897 3.62048 20.4849 3.58055C20.2438 3.48897 19.7445 3.48717 19.5086 3.57703C19.4091 3.61501 15.4817 6.30846 10.7813 9.56258C3.62817 14.5146 2.21784 15.4619 2.13032 15.3739C2.07281 15.316 1.86831 15.0421 1.67584 14.7652L1.32591 14.2617L1.61379 14.0543C1.77211 13.9403 3.88847 12.4752 6.31678 10.7986C8.74508 9.12193 12.8214 6.30455 15.3753 4.53781L20.0187 1.32557L20.4937 1.66189C20.7549 1.84686 24.9247 4.73395 29.7598 8.0777ZM11.7928 3.55336C11.9599 3.73113 11.9853 3.84014 12.0089 4.48045L12.0356 5.20609L10.3927 6.3498C9.48924 6.97877 8.72992 7.49342 8.70554 7.49342C8.68108 7.49342 8.66108 6.64791 8.66108 5.61447V3.73543L8.85292 3.54367C9.04093 3.35558 9.06992 3.35182 10.324 3.35182C11.5979 3.35182 11.6041 3.35268 11.7928 3.55336ZM27.7257 10.1575L35.308 15.407L35.3045 26.2389C35.3018 34.8496 35.2806 37.1282 35.2008 37.3512C35.044 37.79 34.72 38.1584 34.2729 38.4061L33.8623 38.6336H19.9919H6.12142L5.71085 38.4061C5.26379 38.1584 4.93973 37.79 4.7829 37.3512C4.70319 37.1282 4.68194 34.85 4.6792 26.2413L4.67576 15.4119L12.3143 10.1283C16.5154 7.22235 19.9957 4.85898 20.0481 4.87632C20.1005 4.89375 23.5554 7.27025 27.7257 10.1575ZM18.7912 12.7396C15.0134 13.2247 11.8762 16.0281 10.9176 19.7754C10.7789 20.3175 10.7449 20.7297 10.7137 22.2439C10.6931 23.2436 10.6985 24.1501 10.7257 24.2583C10.7558 24.3784 10.8786 24.5044 11.0409 24.5818C11.2667 24.6894 11.3434 24.6934 11.5498 24.6079C11.6834 24.5525 11.8353 24.433 11.8872 24.3422C11.9492 24.2339 11.9983 23.5582 12.03 22.3797C12.0868 20.2637 12.1777 19.8248 12.8393 18.4726C13.7917 16.5261 15.4169 15.104 17.4643 14.4258C19.845 13.6371 22.2781 13.9525 24.3789 15.3219C25.6067 16.1222 26.5722 17.2382 27.216 18.6014C27.8072 19.8531 27.8985 20.3204 27.9537 22.3797C27.9854 23.5582 28.0345 24.2339 28.0965 24.3422C28.1485 24.433 28.3003 24.5525 28.4339 24.6079C28.6403 24.6934 28.7171 24.6894 28.9428 24.5818C29.1052 24.5044 29.228 24.3784 29.258 24.2583C29.2852 24.1501 29.2915 23.2436 29.272 22.2439C29.2398 20.5943 29.2178 20.357 29.0333 19.6786C27.78 15.0697 23.4564 12.1405 18.7912 12.7396ZM19.3277 15.3553C16.5489 15.7625 14.4838 17.4985 13.6208 20.1527C13.4187 20.7742 13.4016 20.9348 13.3537 22.6532C13.304 24.4414 13.2972 24.5002 13.0945 24.892C12.9799 25.1133 12.7531 25.4044 12.5904 25.5389C12.2868 25.79 11.6861 26.0134 11.3143 26.0134C10.9714 26.0134 10.6928 26.2884 10.6928 26.6268C10.6928 27.2235 11.0725 27.4238 11.9108 27.2693C13.0999 27.0502 14.0823 26.1986 14.4868 25.0366C14.5928 24.7322 14.6354 24.2403 14.6798 22.8095C14.7294 21.2131 14.7595 20.9068 14.91 20.4652C15.5275 18.6539 16.937 17.3164 18.7482 16.8232C19.4111 16.6427 20.6381 16.6444 21.319 16.8268C23.0643 17.2943 24.4777 18.634 25.0752 20.3871C25.2267 20.8316 25.2551 21.1294 25.3031 22.7705C25.3465 24.2553 25.3866 24.7273 25.4954 25.0366C25.91 26.2145 26.8962 27.0606 28.1022 27.2731C28.9041 27.4143 29.2909 27.2096 29.2909 26.6443C29.2909 26.2877 29.0207 26.0134 28.6695 26.0134C27.9641 26.0134 27.1779 25.5127 26.8631 24.8629C26.695 24.516 26.6786 24.3572 26.6308 22.6142C26.5824 20.8526 26.5662 20.6984 26.3631 20.0745C25.968 18.8602 25.4626 18.051 24.5525 17.1752C23.6563 16.3129 22.678 15.7817 21.4871 15.5109C20.9108 15.3797 19.7373 15.2953 19.3277 15.3553ZM19.4449 18.0436C17.8634 18.2584 16.5402 19.444 16.1201 21.0225C16.0369 21.335 16.0082 21.9661 16.0075 23.4974C16.0064 25.942 15.9372 26.3796 15.433 27.1282C14.826 28.0296 13.9575 28.5485 12.8891 28.6483C12.2673 28.7064 12.0212 28.901 12.0212 29.3345C12.0212 29.7576 12.2991 29.9987 12.7867 29.9987C13.3194 29.9987 14.2852 29.7372 14.8589 29.4375C15.4802 29.113 16.4331 28.161 16.761 27.5372C17.2541 26.5993 17.2779 26.4406 17.3281 23.7473L17.3741 21.2857L17.5905 20.8449C18.5632 18.8643 21.4206 18.8643 22.3932 20.8449L22.6097 21.2857L22.6547 23.7473C22.6956 25.9836 22.715 26.2553 22.8675 26.7167C23.2368 27.8343 24.1247 28.9027 25.1261 29.4341C25.6942 29.7356 26.6593 29.9987 27.1971 29.9987C27.6846 29.9987 27.9625 29.7576 27.9625 29.3345C27.9625 28.901 27.7164 28.7064 27.0946 28.6483C25.7936 28.5268 24.6756 27.6912 24.1965 26.4823C24.0385 26.0838 24.0227 25.8731 23.9784 23.591C23.9345 21.3296 23.9169 21.0923 23.7617 20.6725C23.0986 18.8778 21.3122 17.7899 19.4449 18.0436ZM19.6607 21.4087C19.3553 21.5866 19.3288 21.7727 19.2837 24.0598L19.2396 26.2869L18.992 27.0293C18.3661 28.9058 17.0431 30.4162 15.2254 31.3297C14.7924 31.5473 14.6838 31.6838 14.6806 32.0144C14.6775 32.3401 14.9731 32.6559 15.2802 32.6548C15.8105 32.653 17.1236 31.8431 18.071 30.9335C19.3447 29.7107 20.1205 28.2911 20.5034 26.4823C20.6406 25.8342 20.7585 22.5076 20.6625 21.9956C20.5619 21.459 20.0695 21.1706 19.6607 21.4087ZM21.5752 28.9461C21.4814 29.0118 21.3816 29.1885 21.3534 29.339C21.2893 29.6806 21.4961 30.0012 22.2437 30.7192C23.1402 31.5801 24.0653 32.1243 25.2552 32.4906C25.9575 32.7069 26.2047 32.7013 26.4422 32.4638C26.6552 32.2508 26.7009 31.839 26.5364 31.6143C26.4827 31.541 26.0695 31.3563 25.6182 31.204C24.4686 30.8161 23.8373 30.4221 22.9793 29.557C22.3604 28.9329 22.2178 28.8266 22.0003 28.8266C21.8604 28.8266 21.6691 28.8803 21.5752 28.9461ZM20.2033 30.8839C20.1085 30.984 19.85 31.2763 19.6289 31.5335C19.1308 32.1131 18.2548 32.7891 17.5206 33.1605C16.9308 33.4589 16.7606 33.6043 16.676 33.8825C16.6019 34.1256 16.8134 34.4903 17.0964 34.6075C17.303 34.693 17.3892 34.6835 17.7556 34.5348C19.1739 33.9591 21.3203 32.021 21.3203 31.3158C21.3203 30.7784 20.5758 30.4905 20.2033 30.8839ZM21.6505 32.7862C21.5957 32.8082 21.4154 33.0252 21.2499 33.2684C20.9263 33.7438 20.226 34.4442 19.9117 34.6068C19.4247 34.8588 19.25 35.2298 19.4153 35.6606C19.4894 35.8538 19.9004 36.036 20.1312 35.9781C20.4438 35.8997 21.1578 35.3957 21.6436 34.9105L22.0852 34.4695L22.4256 34.6962C22.9566 35.0499 23.5631 35.2466 24.2632 35.2922C24.8715 35.3317 24.9101 35.3243 25.1032 35.1313C25.3552 34.8793 25.3748 34.4785 25.1472 34.2342C24.9725 34.0466 24.8536 34.0119 24.1938 33.9557C23.6149 33.9064 23.0617 33.6052 22.6473 33.1138C22.3671 32.7814 22.2907 32.7345 22.0385 32.7399C21.8799 32.7433 21.7052 32.7641 21.6505 32.7862Z" fill="#1C1F34"/>
</svg>
