<svg width="48" height="32" viewBox="0 0 48 32" fill="none" xmlns="http://www.w3.org/2000/svg">
<g clip-path="url(#clip0_588_1987)">
<rect width="48" height="32" rx="8" fill="white"/>
<path d="M44.6154 5.95203H3.38462C1.51834 5.95203 0 6.9417 0 8.15817V23.8419C0 25.0584 1.51834 26.048 3.38462 26.048H44.6154C46.4815 26.048 48 25.0584 48 23.8419V8.15817C48 6.9417 46.4815 5.95203 44.6154 5.95203Z" fill="white"/>
<path d="M10.4495 12.7129C9.93592 12.4776 9.26579 12.3596 8.43908 12.3596H5.2385C4.98506 12.3596 4.84504 12.4441 4.81844 12.6129L3.51824 18.054C3.50473 18.1074 3.52478 18.1563 3.57822 18.2007C3.63136 18.2452 3.69818 18.2674 3.77822 18.2674H5.29848C5.56512 18.2674 5.71168 18.1831 5.73858 18.014L6.09859 16.5472C6.11174 16.4761 6.15863 16.4183 6.23867 16.3738C6.31865 16.3293 6.41868 16.3003 6.5387 16.2869C6.65872 16.2737 6.7719 16.2671 6.87878 16.2671C6.98535 16.2671 7.11197 16.2716 7.2589 16.2804C7.40546 16.2893 7.49889 16.2936 7.53893 16.2936C8.68573 16.2936 9.58588 16.0782 10.2394 15.6469C10.8927 15.2158 11.2197 14.6179 11.2197 13.8532C11.2197 13.3287 10.9628 12.9487 10.4495 12.7129ZM8.79921 14.3467C8.73232 14.6579 8.55916 14.8623 8.27913 14.9601C7.99903 15.0581 7.59898 15.1067 7.07896 15.1067L6.4188 15.1201L6.75894 13.6931C6.78547 13.5954 6.87211 13.5465 7.01891 13.5465H7.3991C7.93227 13.5465 8.31924 13.5978 8.55929 13.6998C8.79921 13.8021 8.87925 14.0179 8.79921 14.3467Z" fill="#003087"/>
<path d="M44.2257 12.3596H42.7455C42.5985 12.3596 42.5119 12.4085 42.4855 12.5063L41.1852 18.054L41.1651 18.0806C41.1651 18.1253 41.1918 18.1673 41.2453 18.2074C41.2983 18.2473 41.3653 18.2673 41.4452 18.2673H42.7656C43.0186 18.2673 43.1587 18.183 43.1857 18.014L44.4859 12.5596V12.5463C44.4858 12.4219 44.3989 12.3596 44.2257 12.3596Z" fill="#009CDE"/>
<path d="M26.3424 14.5066C26.3424 14.4623 26.3155 14.42 26.2625 14.38C26.209 14.34 26.1489 14.3199 26.0825 14.3199H24.5421C24.3952 14.3199 24.2752 14.3646 24.1821 14.4533L22.0617 16.5338L21.1816 14.5334C21.1147 14.3912 20.968 14.3199 20.7415 14.3199H19.2411C19.1742 14.3199 19.1142 14.34 19.0612 14.38C19.0077 14.42 18.9811 14.4623 18.9811 14.5066C18.9811 14.5246 19.1112 14.7867 19.3712 15.2935C19.6311 15.8003 19.9112 16.3471 20.2113 16.9339C20.5114 17.5206 20.6679 17.832 20.6814 17.8673C19.5878 18.8631 19.0411 19.3966 19.0411 19.4676C19.0411 19.5832 19.1278 19.641 19.3012 19.641H20.8415C20.9882 19.641 21.1081 19.5966 21.2015 19.5077L26.3025 14.6C26.329 14.5823 26.3424 14.5513 26.3424 14.5066Z" fill="#003087"/>
<path d="M40.6851 14.3199H39.1647C38.9779 14.3199 38.8649 14.4667 38.8249 14.7601C38.4778 14.4046 37.8447 14.2266 36.9244 14.2266C35.9642 14.2266 35.1472 14.4667 34.4739 14.9467C33.8004 15.4269 33.4638 15.9915 33.4638 16.6404C33.4638 17.1651 33.6938 17.5829 34.1538 17.894C34.6139 18.2053 35.2307 18.3607 36.0044 18.3607C36.391 18.3607 36.7844 18.3073 37.1844 18.2007C37.5845 18.094 37.8976 17.9518 38.1247 17.7739C38.1247 17.7829 38.1112 17.8228 38.0847 17.8939C38.0578 17.9652 38.0446 18.0186 38.0446 18.0539C38.0446 18.1964 38.1311 18.2673 38.3047 18.2673H39.6851C39.9381 18.2673 40.085 18.183 40.125 18.014L40.9452 14.5333C40.9583 14.48 40.9383 14.4311 40.8851 14.3866C40.8316 14.3422 40.7651 14.3199 40.6851 14.3199ZM38.0746 16.9471C37.7346 17.1694 37.3246 17.2805 36.8445 17.2805C36.4575 17.2805 36.1444 17.2095 35.9043 17.0671C35.6642 16.9251 35.5441 16.7295 35.5441 16.4804C35.5441 16.1516 35.7108 15.8736 36.0443 15.6469C36.3773 15.4202 36.7911 15.3068 37.2846 15.3068C37.6576 15.3068 37.9677 15.3802 38.2147 15.5269C38.4612 15.6736 38.5848 15.8759 38.5848 16.1337C38.5848 16.4538 38.4147 16.725 38.0746 16.9471Z" fill="#009CDE"/>
<path d="M17.9609 14.3199H16.4406C16.2537 14.3199 16.1406 14.4667 16.1005 14.7601C15.7404 14.4046 15.1069 14.2266 14.2001 14.2266C13.2399 14.2266 12.423 14.4667 11.7496 14.9467C11.0761 15.4269 10.7395 15.9915 10.7395 16.6404C10.7395 17.1651 10.9696 17.5829 11.4297 17.894C11.8898 18.2053 12.5064 18.3607 13.28 18.3607C13.6532 18.3607 14.0402 18.3073 14.4402 18.2007C14.8402 18.094 15.1603 17.9518 15.4004 17.7739C15.3469 17.8806 15.3203 17.974 15.3203 18.0539C15.3203 18.1964 15.407 18.2673 15.5804 18.2673H16.9606C17.2138 18.2673 17.3607 18.183 17.4007 18.014L18.2208 14.5333C18.234 14.48 18.214 14.4311 18.1608 14.3866C18.1075 14.3422 18.0409 14.3199 17.9609 14.3199ZM15.3504 16.9537C15.0103 17.1718 14.5933 17.2805 14.1002 17.2805C13.7132 17.2805 13.4032 17.2095 13.17 17.0671C12.9365 16.9251 12.8199 16.7295 12.8199 16.4804C12.8199 16.1516 12.9865 15.8736 13.32 15.6469C13.6532 15.4202 14.0667 15.3068 14.5603 15.3068C14.9335 15.3068 15.2435 15.3802 15.4905 15.5269C15.737 15.6736 15.8605 15.8759 15.8605 16.1337C15.8605 16.4627 15.6905 16.7362 15.3504 16.9537Z" fill="#003087"/>
<path d="M33.1736 12.7129C32.6602 12.4776 31.9902 12.3596 31.1633 12.3596H27.9827C27.7158 12.3596 27.5691 12.4441 27.5426 12.6129L26.2424 18.0539C26.2289 18.1074 26.2489 18.1562 26.3024 18.2007C26.3554 18.2452 26.4224 18.2673 26.5024 18.2673H28.1426C28.3026 18.2673 28.4093 18.2096 28.4627 18.094L28.8228 16.5471C28.836 16.476 28.8828 16.4182 28.9629 16.3737C29.0429 16.3293 29.1428 16.3002 29.2629 16.2869C29.3829 16.2737 29.4961 16.2671 29.603 16.2671C29.7096 16.2671 29.8362 16.2715 29.983 16.2804C30.1296 16.2893 30.2233 16.2936 30.263 16.2936C31.41 16.2936 32.31 16.0782 32.9636 15.6469C33.617 15.2157 33.9437 14.6179 33.9437 13.8532C33.9438 13.3287 33.6869 12.9487 33.1736 12.7129ZM31.1233 14.9067C30.8299 15.0401 30.3897 15.1067 29.8031 15.1067L29.1629 15.1201L29.5031 13.6931C29.5295 13.5954 29.6161 13.5465 29.763 13.5465H30.123C30.4163 13.5465 30.6497 13.5554 30.8233 13.5731C30.9964 13.5911 31.1633 13.6465 31.3233 13.7398C31.4835 13.8332 31.5634 13.9688 31.5634 14.1466C31.5634 14.52 31.4165 14.7733 31.1233 14.9067Z" fill="#009CDE"/>
</g>
<rect x="0.5" y="0.5" width="47" height="31" rx="7.5" stroke="#EC6A1E"/>
<defs>
<clipPath id="clip0_588_1987">
<rect width="48" height="32" rx="8" fill="white"/>
</clipPath>
</defs>
</svg>
