<svg width="39" height="40" viewBox="0 0 39 40" fill="none" xmlns="http://www.w3.org/2000/svg">
<path fill-rule="evenodd" clip-rule="evenodd" d="M21.8044 0.0523756C20.2115 0.31903 18.8094 1.53281 18.3258 3.0638C17.95 4.25327 18.1233 5.74777 18.7518 6.73858C19.0583 7.2218 19.5673 7.77066 19.8991 7.97573L20.1632 8.13891V9.96915V11.7993H16.6073H13.0514V10.9389V10.0786L9.04608 10.0988L5.0408 10.119L5.0186 10.9592L4.99641 11.7993H2.4982H0V15.5506V19.3019H2.49914H4.99836L5.01954 20.8063L5.0408 22.3107L9.04608 22.331L13.0514 22.3512V20.8266V19.3019L18.8932 19.3031C25.1573 19.3043 25.1739 19.3053 26.1287 19.7078C27.1776 20.1501 28.1107 21.044 28.6012 22.0763C28.9561 22.823 29.0435 23.1713 29.116 24.1278L29.1708 24.8507H32.9189H36.6669L36.6138 23.8933C36.5122 22.059 36.2324 20.8026 35.5936 19.3114C34.4203 16.5728 32.2615 14.3194 29.5878 13.0425C28.2432 12.4003 26.9505 12.0425 25.2235 11.8345L24.8523 11.7897L24.8528 9.97751L24.8534 8.16525L25.1068 7.99269C25.7943 7.52471 26.4543 6.59893 26.7387 5.70346C26.9508 5.03558 26.9668 3.90104 26.7734 3.24168C26.5587 2.50932 26.1865 1.88129 25.6338 1.31875C24.6661 0.333723 23.1394 -0.171139 21.8044 0.0523756ZM11.8009 1.33461C11.2326 1.44559 10.5272 1.83823 10.1265 2.26658C8.39641 4.1162 9.44903 7.13396 11.9598 7.5226C12.9265 7.67219 13.8051 7.39318 14.5903 6.68716L14.9891 6.32868H16.2085H17.4279V5.70346V5.07825H15.8368H14.2456L13.9416 5.48448C13.052 6.67309 11.3037 6.51734 10.6974 5.19548C10.5071 4.78057 10.5078 4.04453 10.699 3.63244C11.0063 2.97018 11.6795 2.55214 12.4262 2.56004C13.1126 2.56723 13.5425 2.81309 14.0621 3.49567L14.3149 3.82782H15.8714H17.4279V3.16352V2.49923H16.175H14.9222L14.6979 2.24524C14.386 1.89207 13.7244 1.51233 13.1717 1.36931C12.663 1.23771 12.3392 1.2295 11.8009 1.33461ZM23.6606 1.49819C24.8321 1.93412 25.6436 3.12718 25.6436 4.41325C25.6436 5.58975 25.051 6.60518 24.0202 7.19491L23.6019 7.43429V9.61676V11.7993H22.5468H21.4918V9.61239V7.42546L21.0982 7.22602C19.1975 6.26287 18.7951 3.71856 20.3046 2.20906C21.1934 1.32016 22.4609 1.05163 23.6606 1.49819ZM32.3158 1.35892C31.7693 1.49436 31.3005 1.75249 30.8703 2.15482L30.5021 2.49923H29.0448H27.5876V3.16352V3.82782H29.3778H31.1679L31.4471 3.43932C31.9451 2.74612 32.6473 2.44265 33.4192 2.58684C34.6124 2.80973 35.2653 4.08978 34.7502 5.19602C34.3058 6.15018 33.1541 6.57157 32.2377 6.11532C31.9326 5.9634 31.5116 5.56482 31.3693 5.29316L31.2568 5.07825H29.4222H27.5876V5.70346V6.32868H29.042H30.4964L30.9113 6.70779C32.5133 8.17205 34.9648 7.68727 35.8957 5.7223C36.1245 5.23908 36.1453 5.13076 36.1453 4.41396C36.1453 3.70152 36.1238 3.58711 35.9023 3.1196C35.4529 2.17139 34.5639 1.48982 33.5623 1.32586C32.9874 1.23169 32.8102 1.23646 32.3158 1.35892ZM11.8009 16.2149V21.0212H9.06562H6.3303V16.2149V11.4086H9.06562H11.8009V16.2149ZM5.00172 15.5506V18.0515H3.12608H1.25043V15.5506V13.0497H3.12608H5.00172V15.5506ZM25.3829 13.133C29.5109 13.5856 33.0357 16.2693 34.5704 20.128C34.8966 20.9481 35.2113 22.2187 35.2901 23.0336L35.3448 23.6003L32.8534 23.6L30.362 23.5997L30.2334 22.9365C29.9867 21.6646 29.1088 20.2336 28.0739 19.4166C27.4448 18.92 26.9108 18.6322 26.0796 18.3419L25.3603 18.0905L19.2058 18.0683L13.0514 18.0461V15.5479V13.0497H18.8377C22.4029 13.0497 24.9153 13.0817 25.3829 13.133ZM8.4404 13.9094V14.5346H9.06562H9.69083V13.9094V13.2842H9.06562H8.4404V13.9094ZM8.4404 16.4103V17.0355H9.06562H9.69083V16.4103V15.7851H9.06562H8.4404V16.4103ZM8.4404 18.9502V19.6211L9.04608 19.5982L9.65176 19.5754V18.9502V18.325L9.04608 18.3022L8.4404 18.2794V18.9502ZM32.2287 26.7699C30.258 29.2735 28.759 31.7316 28.1324 33.4865C27.8361 34.3166 27.7388 35.464 27.8955 36.2801C28.1075 37.3841 28.8486 38.4825 29.8132 39.1222C31.2627 40.0835 33.5437 40.2777 35.3465 39.5933C37.5967 38.7391 38.7454 36.4244 38.1198 34.0055C37.7218 32.4674 36.0087 29.5153 34.1046 27.0867C33.0531 25.7454 33.0884 25.7885 33.0407 25.7885C33.0189 25.7885 32.6536 26.2301 32.2287 26.7699ZM33.9427 28.9833C35.8457 31.6057 37.044 34.0101 37.044 35.206C37.044 36.8895 36.0551 38.136 34.3661 38.5814C33.7008 38.7569 32.3919 38.7556 31.7319 38.5789C30.6963 38.3016 29.8346 37.6921 29.4712 36.9798C29.2247 36.4967 29.0725 35.8249 29.0725 35.2204C29.0725 33.9285 30.174 31.7109 32.2162 28.8914C32.6457 28.2984 33.0264 27.8236 33.0622 27.8363C33.098 27.8491 33.4943 28.3653 33.9427 28.9833Z" fill="#1C1F34"/>
</svg>
