<svg width="67" height="35" viewBox="0 0 67 35" fill="none" xmlns="http://www.w3.org/2000/svg">
<rect x="2" y="1.5" width="63" height="32" rx="16" fill="#5F60B9"/>
<rect x="2" y="1.5" width="63" height="32" rx="16" stroke="#F6F7F9" stroke-width="3"/>
<path d="M21.228 23L16.316 19.192V17.784H19.116C19.628 17.784 20.0493 17.6773 20.38 17.464C20.7107 17.2507 20.9293 16.936 21.036 16.52H16.316L16.3 15.112H21.02C20.9133 14.7067 20.6947 14.3973 20.364 14.184C20.044 13.9707 19.628 13.864 19.116 13.864L16.316 13.848V12.44H24.348V13.864H21.804C22.0173 13.96 22.1933 14.12 22.332 14.344C22.4813 14.5573 22.588 14.8133 22.652 15.112H24.348V16.52H22.7C22.6253 16.9787 22.4547 17.3947 22.188 17.768C21.9213 18.1413 21.5693 18.4453 21.132 18.68C20.7053 18.9147 20.2093 19.048 19.644 19.08H18.844L24.076 23H21.228ZM28.0114 23V16.312C28.0114 16.0667 28.0114 15.816 28.0114 15.56C28.022 15.2933 28.0327 15.0213 28.0434 14.744C27.6807 15.0747 27.2754 15.3627 26.8274 15.608C26.3794 15.8533 25.9207 16.024 25.4514 16.12L25.1634 14.264C25.4087 14.2427 25.6807 14.1733 25.9794 14.056C26.2887 13.928 26.598 13.7787 26.9074 13.608C27.2274 13.4267 27.5154 13.24 27.7714 13.048C28.038 12.8453 28.2407 12.6427 28.3794 12.44H30.1714V23H28.0114ZM36.0916 23.16C35.1636 23.16 34.3796 22.968 33.7396 22.584C33.1103 22.2 32.593 21.6133 32.1876 20.824L34.1716 19.832C34.3103 20.3013 34.529 20.68 34.8276 20.968C35.1263 21.256 35.5636 21.4 36.1396 21.4C36.5343 21.4 36.8703 21.3307 37.1476 21.192C37.425 21.0533 37.6383 20.8507 37.7876 20.584C37.9476 20.3173 38.0276 19.992 38.0276 19.608C38.0276 19.224 37.953 18.904 37.8036 18.648C37.665 18.3813 37.4623 18.184 37.1956 18.056C36.929 17.9173 36.593 17.848 36.1876 17.848C35.9103 17.848 35.649 17.8747 35.4036 17.928C35.169 17.9813 34.9556 18.0667 34.7636 18.184C34.5716 18.2907 34.401 18.4347 34.2516 18.616L32.5236 18.296L33.1796 12.44H39.5636V14.216H34.8436L34.5236 16.792L34.4756 17H34.5076C34.7316 16.744 35.0356 16.5467 35.4196 16.408C35.8143 16.2693 36.2623 16.2 36.7636 16.2C37.457 16.2 38.049 16.3387 38.5396 16.616C39.0303 16.8933 39.409 17.2827 39.6756 17.784C39.9423 18.2747 40.0756 18.84 40.0756 19.48C40.0756 20.088 39.9743 20.6267 39.7716 21.096C39.569 21.5547 39.281 21.9387 38.9076 22.248C38.545 22.5467 38.1236 22.776 37.6436 22.936C37.1636 23.0853 36.6463 23.16 36.0916 23.16ZM45.9161 23.16C44.5615 23.16 43.5161 22.7013 42.7801 21.784C42.0548 20.8667 41.6921 19.512 41.6921 17.72C41.6921 15.928 42.0548 14.5733 42.7801 13.656C43.5161 12.7387 44.5615 12.28 45.9161 12.28C47.2708 12.28 48.3108 12.7387 49.0361 13.656C49.7721 14.5733 50.1401 15.928 50.1401 17.72C50.1401 19.512 49.7721 20.8667 49.0361 21.784C48.3108 22.7013 47.2708 23.16 45.9161 23.16ZM45.9161 21.384C46.3748 21.384 46.7481 21.256 47.0361 21C47.3348 20.7333 47.5588 20.3333 47.7081 19.8C47.8575 19.256 47.9321 18.5627 47.9321 17.72C47.9321 16.8773 47.8575 16.1893 47.7081 15.656C47.5588 15.112 47.3348 14.712 47.0361 14.456C46.7481 14.1893 46.3748 14.056 45.9161 14.056C45.4575 14.056 45.0788 14.1893 44.7801 14.456C44.4815 14.712 44.2575 15.112 44.1081 15.656C43.9695 16.1893 43.9001 16.8773 43.9001 17.72C43.9001 18.5627 43.9695 19.256 44.1081 19.8C44.2575 20.3333 44.4815 20.7333 44.7801 21C45.0788 21.256 45.4575 21.384 45.9161 21.384Z" fill="white"/>
</svg>
