<svg width="48" height="32" viewBox="0 0 48 32" fill="none" xmlns="http://www.w3.org/2000/svg">
<g clip-path="url(#clip0_588_1980)">
<rect width="48" height="32" rx="8" fill="white"/>
<path fill-rule="evenodd" clip-rule="evenodd" d="M0 0H48V32H0V0Z" fill="white"/>
<path fill-rule="evenodd" clip-rule="evenodd" d="M47.2943 8.435C47.2943 6.94321 46.1314 6.20312 43.8755 6.20312H4.12429C2.99673 6.20312 2.16849 6.40284 1.62214 6.81389C1.00557 7.2251 0.70575 7.75369 0.70575 8.435V23.5651C0.70575 24.2464 1.00557 24.7632 1.62214 25.186C2.25664 25.5973 3.0672 25.797 4.12429 25.797H43.8755C46.1314 25.797 47.2943 25.0454 47.2943 23.5653V8.435ZM43.8755 6.55557C45.7432 6.55557 46.6949 7.18991 46.6949 8.435V23.5651C46.6949 24.8218 45.7432 25.4444 43.8755 25.4444H4.12429C3.22558 25.4444 2.53853 25.2682 2.02754 24.9158C1.49888 24.575 1.23467 24.1051 1.23467 23.5649V8.435C1.23467 7.18991 2.16849 6.55557 4.12429 6.55557H43.8755Z" fill="#315881"/>
<path fill-rule="evenodd" clip-rule="evenodd" d="M4.44123 7.4248C3.68372 7.4248 3.20784 7.50698 2.94363 7.68329C2.71453 7.883 2.60895 8.21187 2.60895 8.69348V11.9707H45.391V8.69348C45.391 7.83602 44.7562 7.4248 43.4877 7.4248H4.44123Z" fill="#315881"/>
<path fill-rule="evenodd" clip-rule="evenodd" d="M2.60895 23.2596C2.60895 24.1285 3.22552 24.5751 4.44123 24.5751H43.4877C44.7562 24.5751 45.391 24.1287 45.391 23.2596V19.9822H2.60895V23.2596Z" fill="#DFA43B"/>
<path fill-rule="evenodd" clip-rule="evenodd" d="M16.7757 13.3687C16.7757 13.5215 16.7404 13.6389 16.6525 13.7212L13.5688 17.3041L13.3749 12.9341H8.44128L10.0975 13.4627C10.5731 13.6624 10.8199 13.9207 10.8199 14.2498L11.2779 18.89H13.6919L19.4716 12.9341H16.5115C16.6876 13.0399 16.7757 13.2042 16.7757 13.3687ZM36.7222 13.1103L36.9157 12.934H33.9025C34.0081 13.0043 34.0435 13.0397 34.0435 13.0631C34.0079 13.1569 33.9374 13.2158 33.9025 13.2862L29.5151 18.6192C29.4095 18.7132 29.3034 18.7955 29.1804 18.8897H31.6648L31.5413 18.7134C31.5413 18.5606 31.6648 18.2789 31.9291 17.8795L32.4577 17.2216H35.0127C35.1187 17.7737 35.1892 18.2319 35.2243 18.5728L35.0127 18.8898H38.0963L37.6381 18.4434L36.7222 13.1103ZM34.8894 16.3877H33.0569L34.6249 14.3789L34.8894 16.3877ZM27.2774 12.6287C26.3261 12.6287 25.5153 12.805 24.7929 13.1572C23.9998 13.4627 23.6123 13.8504 23.6123 14.3321C23.6123 14.8843 23.8942 15.3659 24.458 15.73L26.1675 16.5169C26.7843 16.8107 27.0839 17.069 27.0839 17.3041C27.0839 17.5272 26.9248 17.7269 26.6257 17.8797C26.3261 18.0324 25.9909 18.1028 25.5683 18.1028C24.9515 18.1028 23.8944 17.8093 22.4319 17.2689V18.3613C23.5772 18.8195 24.6876 19.0545 25.7621 19.0545C26.7843 19.0545 27.6477 18.8664 28.388 18.4436C29.1809 18.0558 29.5683 17.5979 29.5683 17.0928C29.5683 16.6696 29.2862 16.2821 28.652 15.8709L27.0129 15.0838C26.4673 14.7902 26.1675 14.5317 26.1675 14.3321C26.1675 13.8741 26.5726 13.639 27.4009 13.639C27.9647 13.639 28.7929 13.8505 29.9028 14.2969L30.238 13.1574C29.3036 12.8048 28.3347 12.6287 27.2774 12.6287ZM20.7227 18.8898C20.6873 18.6431 20.6168 18.42 20.5815 18.185L22.8194 13.3687L23.3481 12.9341H20.1235C20.1589 13.0399 20.194 13.1808 20.2294 13.2866C20.2294 13.3923 20.2294 13.5216 20.194 13.639L17.9563 18.4082L17.4981 18.89L20.7227 18.8898Z" fill="#315881"/>
</g>
<rect x="0.5" y="0.5" width="47" height="31" rx="7.5" stroke="#EC6A1E"/>
<defs>
<clipPath id="clip0_588_1980">
<rect width="48" height="32" rx="8" fill="white"/>
</clipPath>
</defs>
</svg>
